<svg xmlns="http://www.w3.org/2000/svg" width="20" height="20" viewBox="0 0 20 20">
  <path id="Shape_21_copy" data-name="Shape 21 copy" class="cls-1" d="M840.018,24.571a0.662,0.662,0,1,0,.662.661A0.662,0.662,0,0,0,840.018,24.571Zm0-11.145a0.662,0.662,0,1,0-.662-0.663A0.662,0.662,0,0,0,840.018,13.427ZM840,9a10,10,0,1,0,10,10A10,10,0,0,0,840,9Zm0,17.582A7.582,7.582,0,1,1,847.582,19,7.583,7.583,0,0,1,840,26.582Zm-6.216-8.245a0.662,0.662,0,1,0,.662.662A0.663,0.663,0,0,0,833.784,18.336Zm12.468,0a0.662,0.662,0,1,0,.663.662A0.663,0.663,0,0,0,846.252,18.336ZM843.094,15.3l-3.161,3.161-1.763-1.763a0.754,0.754,0,0,0-1.067,1.066l2.36,2.353a0.607,0.607,0,0,0,.666.121c0.426-.2,4.031-3.872,4.031-3.872A0.754,0.754,0,0,0,843.094,15.3Z" transform="translate(-830 -9)" fill="#e21838"/>
</svg>
